<!-- sample rectangle -->
<svg width="429" height="48.14702295278151" viewBox="0 0 389.96969696969694 43.766619932142774" class="looka-1j8o68f"><defs id="SvgjsDefs1176"></defs><g id="SvgjsG1177" featurekey="xG21Y3-0" transform="matrix(0.6898699250099999,0,0,0.6898699250099999,12.021652633006605,-3.7936122398737417)" fill="#41a4c3"><path xmlns="http://www.w3.org/2000/svg" d="M29.399,57.112c0.615,0.308,1.077,0.846,1.077,1.383c0,1.039-1.038,1.961-1.999,1.462l-15.223-7.881  c-0.846-0.499-1.576-0.808-1.576-1.884c0-1.115,0.692-1.385,1.576-1.922l15.223-7.881c1.038-0.346,1.999,0.424,1.999,1.462  c0,0.575-0.461,1.114-1.077,1.423l-13.761,6.918L29.399,57.112z"></path><path xmlns="http://www.w3.org/2000/svg" d="M29.033,60.209c-0.208,0-0.413-0.052-0.608-0.152l-15.223-7.881c-0.086-0.05-0.165-0.095-0.242-0.141  c-0.748-0.431-1.395-0.804-1.395-1.843c0-1.057,0.594-1.406,1.346-1.849c0.093-0.054,0.187-0.11,0.284-0.169l15.229-7.885  c0.195-0.066,0.377-0.097,0.558-0.097c0.9,0,1.606,0.728,1.606,1.658c0,0.587-0.437,1.172-1.139,1.522l-13.562,6.818l13.562,6.818  c0.691,0.346,1.139,0.93,1.139,1.484C30.588,59.407,29.861,60.209,29.033,60.209z M28.982,40.419c-0.156,0-0.314,0.026-0.47,0.078  L13.306,48.37c-0.091,0.057-0.188,0.113-0.281,0.167c-0.743,0.439-1.234,0.728-1.234,1.655c0,0.91,0.537,1.219,1.281,1.648  c0.079,0.045,0.158,0.09,0.239,0.139l15.217,7.877c0.162,0.084,0.332,0.127,0.504,0.127c0.697,0,1.33-0.709,1.33-1.488  c0-0.465-0.407-0.98-1.014-1.283l-13.962-7.02l13.962-7.02c0.616-0.308,1.014-0.828,1.014-1.321  C30.363,41.048,29.756,40.419,28.982,40.419z"></path><path xmlns="http://www.w3.org/2000/svg" d="M46.385,64.416c-0.231,0.691-0.922,1.077-1.614,0.961c-0.769-0.153-1.269-0.885-1.154-1.692  c0-0.076,0.039-0.191,0.077-0.307l9.88-27.831c0.23-0.692,0.922-1.038,1.614-0.923c0.73,0.154,1.269,0.885,1.153,1.652  c0,0.078-0.039,0.193-0.077,0.27L46.385,64.416z"></path><path xmlns="http://www.w3.org/2000/svg" d="M45.016,65.511c-0.088,0-0.177-0.008-0.263-0.022c-0.837-0.167-1.371-0.949-1.247-1.819  c-0.001-0.076,0.038-0.193,0.079-0.318l9.883-27.842c0.207-0.618,0.778-1.02,1.457-1.02c0.094,0,0.188,0.009,0.281,0.023  c0.812,0.172,1.369,0.97,1.247,1.781c0.001,0.086-0.047,0.22-0.087,0.302l-9.875,27.856C46.281,65.084,45.688,65.511,45.016,65.511z   M54.925,34.715c-0.58,0-1.068,0.34-1.244,0.867l-9.88,27.833c-0.035,0.104-0.07,0.213-0.07,0.27  c-0.108,0.767,0.349,1.439,1.062,1.582c0.071,0.012,0.147,0.018,0.223,0.018c0.575,0,1.083-0.363,1.263-0.904l9.881-27.872  c0.041-0.085,0.07-0.182,0.07-0.231c0.105-0.712-0.373-1.396-1.064-1.543C55.089,34.722,55.007,34.715,54.925,34.715z"></path><path xmlns="http://www.w3.org/2000/svg" d="M84.362,50.192L70.6,43.274c-0.614-0.309-1.075-0.848-1.075-1.423c0-1.038,1.037-1.962,1.998-1.462l15.223,7.881  c0.885,0.537,1.576,0.807,1.576,1.922c0,1.076-0.73,1.385-1.576,1.884l-15.223,7.881c-0.961,0.499-1.998-0.423-1.998-1.462  c0-0.537,0.461-1.075,1.075-1.383L84.362,50.192z"></path><path xmlns="http://www.w3.org/2000/svg" d="M70.967,60.209c-0.828,0-1.556-0.802-1.556-1.714c0-0.555,0.447-1.139,1.139-1.484l13.562-6.818L70.55,43.374  c-0.702-0.352-1.139-0.936-1.139-1.522c0-0.913,0.728-1.714,1.556-1.714c0.209,0,0.413,0.051,0.608,0.152l15.223,7.881  c0.104,0.062,0.198,0.119,0.29,0.173c0.753,0.442,1.347,0.792,1.347,1.849c0,1.039-0.646,1.412-1.395,1.843  c-0.078,0.046-0.157,0.091-0.237,0.138l-15.228,7.884C71.38,60.157,71.176,60.209,70.967,60.209z M70.967,40.363  c-0.696,0-1.33,0.709-1.33,1.488c0,0.493,0.397,1.013,1.014,1.321l13.962,7.02l-13.962,7.02c-0.606,0.305-1.014,0.82-1.014,1.283  c0,0.779,0.634,1.488,1.33,1.488c0.172,0,0.342-0.043,0.504-0.127l15.223-7.88c0.075-0.046,0.155-0.091,0.233-0.136  c0.744-0.43,1.282-0.738,1.282-1.648c0-0.928-0.491-1.216-1.235-1.655c-0.093-0.054-0.188-0.11-0.287-0.17l-15.216-7.876  C71.309,40.405,71.139,40.363,70.967,40.363z"></path></g><g id="SvgjsG1178" featurekey="n48U4P-0" transform="matrix(1.8383665801875317,0,0,1.8383665801875317,93.25737151407859,6.484544423633473)" fill="#58d5d3"><path d="M8.5 5.720000000000001 l5.34 14.28 l-3.26 0 l-1.08 -3.18 l-5.34 0 l-1.12 3.18 l-3.18 0 l5.42 -14.28 l3.22 0 z M6.84 9.24 l-1.86 5.24 l3.7 0 l-1.8 -5.24 l-0.04 0 z M20.82 9.38 c0.24 0 0.44668 0.03334 0.62002 0.1 l0 2.64 c-0.30666 -0.06666 -0.64666 -0.1 -1.02 -0.1 c-1.8667 0 -2.8 1.1067 -2.8 3.32 l0 4.66 l-2.84 0 l0 -10.34 l2.7 0 l0 1.92 l0.04 0 c0.28 -0.66666 0.72334 -1.2 1.33 -1.6 s1.2633 -0.6 1.97 -0.6 z M26.16 6.5600000000000005 l0.000019531 3.1 l2.08 0 l0 1.9 l-2.08 0 l0 5.12 c0 0.48 0.08 0.8 0.24 0.96 s0.48 0.24 0.96 0.24 c0.34666 0 0.64 -0.02666 0.88 -0.08 l0 2.22 c-0.4 0.06666 -0.96 0.1 -1.68 0.1 c-1.0933 0 -1.9067 -0.18666 -2.44 -0.56 s-0.8 -1.02 -0.8 -1.94 l0 -6.06 l-1.72 0 l0 -1.9 l1.72 0 l0 -3.1 l2.84 0 z M34.38 9.38 c0.97334 0 1.84 0.22664 2.6 0.67998 s1.3567 1.11 1.79 1.97 s0.65 1.85 0.65 2.97 c0 0.10666 -0.0066602 0.28 -0.02 0.52 l-7.46 0 c0.02666 0.82666 0.24332 1.47 0.64998 1.93 s1.03 0.69 1.87 0.69 c0.52 0 0.99666 -0.13 1.43 -0.39 s0.71 -0.57666 0.83 -0.95 l2.5 0 c-0.73334 2.32 -2.3466 3.48 -4.84 3.48 c-0.94666 -0.01334 -1.8233 -0.22 -2.63 -0.62 s-1.45 -1.0233 -1.93 -1.87 s-0.72 -1.83 -0.72 -2.95 c0 -1.0533 0.24334 -2.0134 0.73 -2.88 s1.1333 -1.5133 1.94 -1.94 s1.6767 -0.64 2.61 -0.64 z M36.56 13.719999999999999 c-0.13334 -0.77334 -0.38 -1.3333 -0.74 -1.68 s-0.87334 -0.52 -1.54 -0.52 c-0.69334 0 -1.24 0.19666 -1.64 0.59 s-0.63334 0.93 -0.7 1.61 l4.62 0 z M47.04 9.38 c1.5067 0 2.5134 0.57332 3.02 1.72 c0.78666 -1.1467 1.8333 -1.72 3.14 -1.72 c1.2933 0 2.2434 0.32666 2.85 0.98 s0.91 1.5533 0.91 2.7 l0 6.94 l-2.84 0 l0 -5.98 c0 -0.90666 -0.13666 -1.5333 -0.41 -1.88 s-0.71668 -0.52 -1.33 -0.52 c-1.2667 0 -1.9 0.86666 -1.9 2.6 l0 5.78 l-2.84 0 l0 -6.1 c0 -0.88 -0.14 -1.48 -0.42 -1.8 s-0.71334 -0.48 -1.3 -0.48 c-0.54666 0 -1.0033 0.21666 -1.37 0.65 s-0.55 1.0033 -0.55 1.71 l0 6.02 l-2.84 0 l0 -10.34 l2.68 0 l0 1.4 l0.04 0 c0.78666 -1.12 1.84 -1.68 3.16 -1.68 z M69.48 5.720000000000001 l3.34 9.82 l0.04 0 l3.16 -9.82 l4.42 0 l0 14.28 l-2.94 0 l0 -10.12 l-0.04 0 l-3.5 10.12 l-2.42 0 l-3.5 -10.02 l-0.04 0 l0 10.02 l-2.94 0 l0 -14.28 l4.42 0 z M87.68 9.38 c0.97334 0 1.84 0.22664 2.6 0.67998 s1.3567 1.11 1.79 1.97 s0.65 1.85 0.65 2.97 c0 0.10666 -0.0066602 0.28 -0.02 0.52 l-7.46 0 c0.02666 0.82666 0.24332 1.47 0.64998 1.93 s1.03 0.69 1.87 0.69 c0.52 0 0.99666 -0.13 1.43 -0.39 s0.71 -0.57666 0.83 -0.95 l2.5 0 c-0.73334 2.32 -2.3466 3.48 -4.84 3.48 c-0.94666 -0.01334 -1.8233 -0.22 -2.63 -0.62 s-1.45 -1.0233 -1.93 -1.87 s-0.72 -1.83 -0.72 -2.95 c0 -1.0533 0.24334 -2.0134 0.73 -2.88 s1.1333 -1.5133 1.94 -1.94 s1.6767 -0.64 2.61 -0.64 z M89.86000000000001 13.719999999999999 c-0.13334 -0.77334 -0.38 -1.3333 -0.74 -1.68 s-0.87334 -0.52 -1.54 -0.52 c-0.69334 0 -1.24 0.19666 -1.64 0.59 s-0.63334 0.93 -0.7 1.61 l4.62 0 z M104.46000000000001 5.720000000000001 l0 14.28 l-2.7 0 l0 -1.32 l-0.04 0 c-0.61334 1.0667 -1.66 1.6 -3.14 1.6 c-1.4267 0 -2.5566 -0.52 -3.39 -1.56 s-1.25 -2.3666 -1.25 -3.98 c0 -1.5733 0.42334 -2.86 1.27 -3.86 s1.95 -1.5 3.31 -1.5 c0.62666 0 1.2167 0.13 1.77 0.39 s0.98334 0.64334 1.29 1.15 l0.04 0 l0 -5.2 l2.84 0 z M96.78000000000002 14.82 c0 0.94666 0.22332 1.7367 0.66998 2.37 s1.0567 0.95 1.83 0.95 c0.81334 0 1.4233 -0.29666 1.83 -0.89 s0.61 -1.41 0.61 -2.45 s-0.21334 -1.8467 -0.64 -2.42 s-1.0333 -0.86 -1.82 -0.86 c-0.81334 0 -1.43 0.3 -1.85 0.9 s-0.63 1.4 -0.63 2.4 z M108.60000000000001 9.66 l2.18 7.06 l0.04 0 l2.18 -7.06 l2.82 0 l-3.5 10.34 l-3.16 0 l-3.54 -10.34 l2.98 0 z M121.78000000000002 9.38 c0.97334 0 1.84 0.22664 2.6 0.67998 s1.3567 1.11 1.79 1.97 s0.65 1.85 0.65 2.97 c0 0.10666 -0.0066602 0.28 -0.02 0.52 l-7.46 0 c0.02666 0.82666 0.24332 1.47 0.64998 1.93 s1.03 0.69 1.87 0.69 c0.52 0 0.99666 -0.13 1.43 -0.39 s0.71 -0.57666 0.83 -0.95 l2.5 0 c-0.73334 2.32 -2.3466 3.48 -4.84 3.48 c-0.94666 -0.01334 -1.8233 -0.22 -2.63 -0.62 s-1.45 -1.0233 -1.93 -1.87 s-0.72 -1.83 -0.72 -2.95 c0 -1.0533 0.24334 -2.0134 0.73 -2.88 s1.1333 -1.5133 1.94 -1.94 s1.6767 -0.64 2.61 -0.64 z M123.96000000000001 13.719999999999999 c-0.13334 -0.77334 -0.38 -1.3333 -0.74 -1.68 s-0.87334 -0.52 -1.54 -0.52 c-0.69334 0 -1.24 0.19666 -1.64 0.59 s-0.63334 0.93 -0.7 1.61 l4.62 0 z M138.56000000000003 5.720000000000001 l0 14.28 l-2.7 0 l0 -1.32 l-0.04 0 c-0.61334 1.0667 -1.66 1.6 -3.14 1.6 c-1.4267 0 -2.5566 -0.52 -3.39 -1.56 s-1.25 -2.3666 -1.25 -3.98 c0 -1.5733 0.42334 -2.86 1.27 -3.86 s1.95 -1.5 3.31 -1.5 c0.62666 0 1.2167 0.13 1.77 0.39 s0.98334 0.64334 1.29 1.15 l0.04 0 l0 -5.2 l2.84 0 z M130.88000000000002 14.82 c0 0.94666 0.22332 1.7367 0.66998 2.37 s1.0567 0.95 1.83 0.95 c0.81334 0 1.4233 -0.29666 1.83 -0.89 s0.61 -1.41 0.61 -2.45 s-0.21334 -1.8467 -0.64 -2.42 s-1.0333 -0.86 -1.82 -0.86 c-0.81334 0 -1.43 0.3 -1.85 0.9 s-0.63 1.4 -0.63 2.4 z M145.48000000000005 9.38 c0.97334 0 1.84 0.22664 2.6 0.67998 s1.3567 1.11 1.79 1.97 s0.65 1.85 0.65 2.97 c0 0.10666 -0.0066602 0.28 -0.02 0.52 l-7.46 0 c0.02666 0.82666 0.24332 1.47 0.64998 1.93 s1.03 0.69 1.87 0.69 c0.52 0 0.99666 -0.13 1.43 -0.39 s0.71 -0.57666 0.83 -0.95 l2.5 0 c-0.73334 2.32 -2.3466 3.48 -4.84 3.48 c-0.94666 -0.01334 -1.8233 -0.22 -2.63 -0.62 s-1.45 -1.0233 -1.93 -1.87 s-0.72 -1.83 -0.72 -2.95 c0 -1.0533 0.24334 -2.0134 0.73 -2.88 s1.1333 -1.5133 1.94 -1.94 s1.6767 -0.64 2.61 -0.64 z M147.66000000000003 13.719999999999999 c-0.13334 -0.77334 -0.38 -1.3333 -0.74 -1.68 s-0.87334 -0.52 -1.54 -0.52 c-0.69334 0 -1.24 0.19666 -1.64 0.59 s-0.63334 0.93 -0.7 1.61 l4.62 0 z M154.18000000000004 9.66 l2.18 7.06 l0.04 0 l2.18 -7.06 l2.82 0 l-3.5 10.34 l-3.16 0 l-3.54 -10.34 l2.98 0 z"></path></g></svg>