<svg width="150" height="39" viewBox="0 0 150 39" fill="none" xmlns="http://www.w3.org/2000/svg">
<path d="M1.24508 20.4347L9.54404 28.7336C14.8124 23.4735 14.811 14.8028 9.54403 9.54407L1.24542 17.8426C0.530901 18.5611 0.530749 19.7215 1.24508 20.4347Z" fill="#1E0FC8"/>
<path d="M37.0326 17.843L28.7336 9.54407C23.4653 14.8042 23.4667 23.4748 28.7336 28.7336L37.0322 20.435C37.7468 19.7166 37.7469 18.5562 37.0326 17.843Z" fill="#1E0FC8"/>
<path d="M38.2777 8.25552e-05L28.7083 9.56938C23.4592 14.8181 14.8048 14.8044 9.54403 9.54407L19.0881 0L38.2777 8.25552e-05Z" fill="#1E0FC8"/>
<path d="M0 38.2776L9.56935 28.7083C14.8185 23.4596 23.4729 23.4733 28.7336 28.7336L19.1895 38.2777L0 38.2776Z" fill="#1E0FC8"/>
<path d="M63.021 18.7176C62.0938 18.2229 60.8408 17.7716 59.2619 17.3662C57.7884 16.9945 56.6743 16.6736 55.9196 16.4057C55.1649 16.1378 54.657 15.8603 54.3958 15.5683C54.1347 15.2787 54.0029 14.9239 54.0029 14.504C54.0029 13.7824 54.3455 13.2153 55.0307 12.8026C55.716 12.3899 56.6096 12.2065 57.7117 12.2524C58.8594 12.2982 59.7938 12.583 60.5125 13.1067C61.2313 13.6304 61.6554 14.3447 61.7824 15.2521L65.5056 14.5716C65.3666 13.4566 64.9497 12.4816 64.2525 11.649C63.5577 10.8189 62.6449 10.1745 61.5212 9.7208C60.3951 9.2671 59.1133 9.04025 57.6758 9.04025C56.2383 9.04025 54.9157 9.27193 53.8208 9.7377C52.7235 10.2035 51.8753 10.8599 51.2716 11.7094C50.6678 12.5589 50.3659 13.5531 50.3659 14.6922C50.3659 15.6117 50.5672 16.3936 50.9673 17.038C51.3674 17.6823 52.0407 18.247 52.987 18.7297C53.931 19.2124 55.2104 19.6637 56.8253 20.0812C58.2987 20.4769 59.3961 20.8076 60.1148 21.0755C60.8336 21.3433 61.308 21.6257 61.5332 21.9225C61.7608 22.2194 61.8734 22.6055 61.8734 23.0833C61.8734 23.8966 61.5524 24.5361 60.9079 25.0019C60.2634 25.4677 59.3721 25.6994 58.2364 25.6994C56.9834 25.6994 55.9364 25.417 55.0954 24.8523C54.2545 24.2876 53.7178 23.5177 53.4854 22.5403L49.7598 23.1147C50.0832 24.9512 50.9673 26.3775 52.4048 27.3887C53.8424 28.3999 55.7064 28.9067 57.9921 28.9067C60.2777 28.9067 62.2352 28.3781 63.5865 27.3187C64.9378 26.2617 65.6134 24.8016 65.6134 22.9409C65.6134 21.9756 65.4145 21.1527 65.012 20.4721C64.6119 19.7916 63.9482 19.2051 63.0186 18.7104L63.021 18.7176Z" fill="#0A0D13"/>
<path d="M128.889 21.0153C128.827 21.4521 128.738 21.8528 128.623 22.2172C128.374 22.9967 128.032 23.6241 127.596 24.102C127.16 24.5798 126.652 24.9249 126.072 25.1397C125.49 25.3545 124.876 25.4631 124.225 25.4631C123.226 25.4631 122.416 25.2604 121.793 24.8525C121.17 24.4447 120.688 23.9113 120.346 23.2477C120.003 22.584 119.771 21.8672 119.648 21.0926C119.526 20.3203 119.466 19.5673 119.466 18.8337V9.5714H115.772V20.0379C115.772 20.6196 115.825 21.2929 115.928 22.0627C116.033 22.8301 116.23 23.6145 116.519 24.4181C116.809 25.2217 117.231 25.9626 117.782 26.6432C118.333 27.3237 119.052 27.874 119.934 28.2915C120.818 28.7114 121.908 28.9189 123.211 28.9189C124.907 28.9189 126.355 28.5521 127.55 27.8209C128.233 27.4034 128.822 26.8869 129.323 26.2812V28.7138H132.56V9.56898H128.887V21.0129L128.889 21.0153Z" fill="#0A0D13"/>
<path d="M149.401 20.4817C149.001 19.8012 148.337 19.2147 147.408 18.72C146.48 18.2253 145.227 17.774 143.648 17.3685C142.175 16.9969 141.061 16.6759 140.306 16.408C139.551 16.1402 139.044 15.8626 138.782 15.5706C138.521 15.281 138.389 14.9263 138.389 14.5063C138.389 13.7848 138.732 13.2176 139.417 12.805C140.103 12.3923 140.996 12.2089 142.098 12.2547C143.246 12.3006 144.18 12.5853 144.899 13.109C145.618 13.6327 146.042 14.3471 146.169 15.2545L149.892 14.5739C149.753 13.459 149.336 12.484 148.639 11.6514C147.944 10.8212 147.031 10.1769 145.908 9.72315C144.784 9.26945 143.5 9.0426 142.062 9.0426C140.625 9.0426 139.302 9.27428 138.207 9.74005C137.11 10.2058 136.262 10.8622 135.658 11.7117C135.054 12.5612 134.752 13.5555 134.752 14.6946C134.752 15.6141 134.954 16.396 135.354 17.0403C135.754 17.6847 136.427 18.2494 137.374 18.7321C138.318 19.2147 139.597 19.666 141.212 20.0835C142.685 20.4793 143.783 20.8099 144.501 21.0778C145.22 21.3457 145.695 21.628 145.92 21.9249C146.147 22.2217 146.26 22.6078 146.26 23.0857C146.26 23.899 145.939 24.5385 145.294 25.0043C144.65 25.47 143.759 25.7017 142.623 25.7017C141.37 25.7017 140.323 25.4194 139.482 24.8546C138.641 24.2899 138.104 23.5201 137.872 22.5427L134.146 23.1171C134.47 24.9536 135.354 26.3799 136.791 27.391C138.229 28.4022 140.093 28.909 142.379 28.909C144.664 28.909 146.622 28.3805 147.973 27.321C149.324 26.264 150 24.804 150 22.9433C150 21.978 149.801 21.155 149.399 20.4745L149.401 20.4817Z" fill="#0A0D13"/>
<path d="M92.7387 21.2951L88.1362 9.5664L84.2788 9.57122L91.8283 28.1899L92.7483 25.8225C93.3137 24.3673 93.1133 24.8805 93.6294 23.5517L92.7387 21.2951Z" fill="#0A0D13"/>
<path d="M93.6294 23.5517L91.8277 28.1901L87.3066 38.2778L90.7687 38.2754L102.626 9.56898H98.8668L93.6294 23.5517Z" fill="#0A0D13"/>
<path d="M111.953 9.59051C111.342 9.63153 110.746 9.74737 110.163 9.93803C109.581 10.1311 109.054 10.4014 108.582 10.7489C108.098 11.0747 107.672 11.4898 107.303 11.9966C107.137 12.221 106.991 12.4575 106.852 12.7037V9.57361H103.685V28.7112H107.379V18.9518C107.379 18.2229 107.454 17.5327 107.602 16.8787C107.748 16.2247 107.99 15.631 108.326 15.0953C108.661 14.5619 109.116 14.1058 109.696 13.7293C110.31 13.3311 110.983 13.0971 111.714 13.0295C112.447 12.9619 113.832 13.0078 113.832 13.0078L115.24 9.5712C114.574 9.5712 112.562 9.54948 111.951 9.59051H111.953Z" fill="#0A0D13"/>
<path d="M67.2239 28.7083L67.2454 0L70.9824 4.80424e-10V18.9368L78.7623 9.56942H83.455L75.2509 19.2877L83.9704 28.7083H78.961L70.9824 19.6333V28.7083H67.2239Z" fill="#0A0D13"/>
</svg>
